<svg xmlns="http://www.w3.org/2000/svg" width="500" height="800" viewBox="0 0 500 800"><text transform="translate(0 -4.98)" font-family="'MyriadPro-Regular'" font-size="6">30x30</text><path fill="#FFF" d="M12 19l6-4-6-4M11 42l4 6 4-6M15 168l-4-6h8l-4 6zm-2.485-5.19L15 166.54l2.485-3.73h-4.97zM15 222l4 6h-8l4-6zm2.486 5.19L15 223.46l-2.485 3.73h4.97zM18 71l-6 4 6 4M19 108l-4-6-4 6M12 139v-8l6 4-6 4zm.81-6.485v4.97L16.54 135l-3.73-2.485zM18 191v8l-6-4 6-4zm-.81 6.485v-4.97L13.462 195l3.728 2.485z"/></svg>