<?xml version="1.0" encoding="utf-8"?>
<!-- Generator: Adobe Illustrator 15.0.0, SVG Export Plug-In . SVG Version: 6.00 Build 0)  -->
<!DOCTYPE svg PUBLIC "-//W3C//DTD SVG 1.1//EN" "http://www.w3.org/Graphics/SVG/1.1/DTD/svg11.dtd">
<svg version="1.1" id="Layer_1" xmlns="http://www.w3.org/2000/svg" xmlns:xlink="http://www.w3.org/1999/xlink" x="0px" y="0px"
	 width="500px" height="800px" viewBox="0 0 500 800" enable-background="new 0 0 500 800" xml:space="preserve">
<text transform="matrix(1 0 0 1 -2.442598e-004 -4.9785)" font-family="'MyriadPro-Regular'" font-size="6">30x30</text>
<polygon fill="#FFFFFF" points="12,19 18,15 12,11 "/>
<polygon fill="#FFFFFF" points="11,42 15,48 19,42 "/>
<g>
	<path fill="#FFFFFF" d="M15,168l-4-6h8L15,168z M12.515,162.811L15,166.539l2.485-3.728H12.515z"/>
</g>
<g>
	<path fill="#FFFFFF" d="M15,222l4,6h-8L15,222z M17.486,227.189L15,223.461l-2.485,3.728H17.486z"/>
</g>
<polygon fill="#FFFFFF" points="18,71 12,75 18,79 "/>
<polygon fill="#FFFFFF" points="18.999,108 14.999,102 10.999,108 "/>
<g>
	<path fill="#FFFFFF" d="M12,139v-8l6,4L12,139z M12.811,132.515v4.971L16.539,135L12.811,132.515z"/>
</g>
<g>
	<path fill="#FFFFFF" d="M18,191v8l-6-4L18,191z M17.19,197.485v-4.971L13.462,195L17.19,197.485z"/>
</g>
</svg>
